#N canvas 147 25 1034 672 12;
#N canvas 872 335 302 336 ampRL 0;
#X obj 60 230 dac~;
#X obj 50 190 *~;
#X obj 80 190 *~;
#X obj 30 150 inlet~;
#X obj 80 150 inlet~;
#X text 50 20 dac LR;
#X obj 57 43 hsl 75 15 0 1 0 0 empty empty empty -2 -8 0 10 -262144
-1 -1 2900 1;
#X connect 1 0 0 0;
#X connect 2 0 0 1;
#X connect 3 0 1 0;
#X connect 4 0 2 0;
#X connect 6 0 1 1;
#X connect 6 0 2 1;
#X coords 0 -1 1 1 96 47 2 46 17;
#X restore 624 538 pd ampRL;
#N canvas 339 162 424 570 sawosc1 0;
#X obj 60 500 *~;
#X obj 150 340 loadbang;
#X obj 130 340 bng 13 250 50 0 empty empty empty 17 7 0 10 -262144
-1 -1;
#X obj 130 360 random 100;
#X floatatom 130 400 5 0 0 0 - - -;
#X obj 130 380 * 0.1;
#X obj 40 360 +;
#X obj 60 530 outlet~;
#X obj 140 200 expr ($f1 - 4) * -1;
#X obj 40 280 pow;
#X msg 160 240 2;
#X obj 20 240 expr $f1 + $f2 - 1;
#X obj 40 310 expr $f1 * 100 - 50;
#X obj 20 410 phasor~;
#X obj 30 460 expr~ $v1 * 2 - 1;
#X obj 50 40 vsl 15 128 0.001 1 0 0 empty empty empty 0 -9 0 10 -262144
-1 -1 0 1;
#X obj 100 70 vsl 15 100 0 1 0 0 empty empty empty 0 -9 0 10 -262144
-1 -1 0 1;
#X obj 70 100 vradio 15 0 1 5 empty empty empty 0 -8 0 10 -262144 -1
-1 3;
#X floatatom 50 180 5 0 0 0 - - -;
#X text 70 40 f;
#X text 100 40 a;
#X text 50 10 SAWTOOTH;
#X connect 0 0 7 0;
#X connect 1 0 3 0;
#X connect 2 0 3 0;
#X connect 3 0 5 0;
#X connect 4 0 6 1;
#X connect 5 0 4 0;
#X connect 6 0 13 0;
#X connect 6 0 18 0;
#X connect 8 0 11 1;
#X connect 9 0 12 0;
#X connect 10 0 9 0;
#X connect 11 0 9 1;
#X connect 12 0 6 0;
#X connect 13 0 14 0;
#X connect 14 0 0 0;
#X connect 15 0 11 0;
#X connect 15 0 10 0;
#X connect 16 0 0 1;
#X connect 17 0 8 0;
#X coords 0 -1 1 1 84 198 2 42 9;
#X restore 119 28 pd sawosc1;
#N canvas 390 25 424 570 sinosc1 0;
#X obj 40 460 *~;
#X obj 150 340 loadbang;
#X obj 130 340 bng 13 250 50 0 empty empty empty 17 7 0 10 -262144
-1 -1;
#X obj 130 360 random 100;
#X floatatom 130 400 5 0 0 0 - - -;
#X obj 130 380 * 0.1;
#X obj 40 360 +;
#X obj 40 490 outlet~;
#X obj 140 200 expr ($f1 - 4) * -1;
#X obj 40 280 pow;
#X msg 160 240 2;
#X obj 20 240 expr $f1 + $f2 - 1;
#X obj 40 310 expr $f1 * 100 - 50;
#X obj 50 40 vsl 15 128 0.001 1 0 0 empty empty empty 0 -9 0 10 -262144
-1 -1 0 1;
#X obj 100 70 vsl 15 100 0 1 0 0 empty empty empty 0 -9 0 10 -262144
-1 -1 0 1;
#X obj 70 100 vradio 15 0 1 5 empty empty empty 0 -8 0 10 -262144 -1
-1 2;
#X floatatom 50 180 5 0 0 0 - - -;
#X text 70 40 f;
#X text 100 40 a;
#X obj 20 410 osc~;
#X text 50 10 SIN;
#X connect 0 0 7 0;
#X connect 1 0 3 0;
#X connect 2 0 3 0;
#X connect 3 0 5 0;
#X connect 4 0 6 1;
#X connect 5 0 4 0;
#X connect 6 0 16 0;
#X connect 6 0 19 0;
#X connect 8 0 11 1;
#X connect 9 0 12 0;
#X connect 10 0 9 0;
#X connect 11 0 9 1;
#X connect 12 0 6 0;
#X connect 13 0 11 0;
#X connect 13 0 10 0;
#X connect 14 0 0 1;
#X connect 15 0 8 0;
#X connect 19 0 0 0;
#X coords 0 -1 1 1 84 198 2 42 9;
#X restore 18 36 pd sinosc1;
#N canvas 381 117 744 386 lopass 0;
#X obj 60 239 lop~;
#X obj 70 309 outlet~;
#X obj 10 181 inlet~;
#X obj 9 31 vsl 15 75 5 5000 1 1 empty empty empty 0 -9 0 10 -262144
-1 -1 6150 1;
#X text 3 10 lpf;
#X connect 0 0 1 0;
#X connect 2 0 0 0;
#X connect 3 0 0 1;
#X coords 0 -1 1 1 35 108 2 0 5;
#X restore 31 296 pd lopass;
#N canvas 936 23 662 626 sqaosc1 0;
#X obj 110 520 *~;
#X obj 260 370 loadbang;
#X obj 240 370 bng 13 250 50 0 empty empty empty 17 7 0 10 -262144
-1 -1;
#X obj 240 390 random 100;
#X floatatom 240 430 5 0 0 0 - - -;
#X obj 240 410 * 0.1;
#X obj 90 420 +;
#X obj 110 550 outlet~;
#X obj 190 250 expr ($f1 - 4) * -1;
#X obj 90 350 pow;
#X msg 210 310 2;
#X obj 70 310 expr $f1 + $f2 - 1;
#X obj 90 380 expr $f1 * 100 - 50;
#X obj 50 40 vsl 15 128 0.001 1 0 0 empty empty empty 0 -9 0 10 -262144
-1 -1 0 1;
#X obj 130 70 vsl 15 100 0 1 0 0 empty empty empty 0 -9 0 10 -262144
-1 -1 0 1;
#X obj 70 100 vradio 15 0 1 5 empty empty empty 0 -8 0 10 -262144 -1
-1 3;
#X floatatom 50 180 5 0 0 0 - - -;
#X text 130 40 a;
#X obj 30 450 osc~;
#X text 50 10 SQUARE;
#X obj 90 70 vsl 15 100 0 0.99 0 0 empty empty empty 0 -9 0 10 -262144
-1 -1 0 1;
#X text 70 40 f;
#X text 90 40 s;
#X obj 180 140 inlet~;
#X obj 30 480 expr~ if($v1 > $v2 \, 1 \, -1);
#X obj 180 170 /~ 101;
#X connect 0 0 7 0;
#X connect 1 0 3 0;
#X connect 2 0 3 0;
#X connect 3 0 5 0;
#X connect 4 0 6 1;
#X connect 5 0 4 0;
#X connect 6 0 16 0;
#X connect 6 0 18 0;
#X connect 8 0 11 1;
#X connect 9 0 12 0;
#X connect 10 0 9 0;
#X connect 11 0 9 1;
#X connect 12 0 6 0;
#X connect 13 0 11 0;
#X connect 13 0 10 0;
#X connect 14 0 0 1;
#X connect 15 0 8 0;
#X connect 18 0 24 0;
#X connect 20 0 24 1;
#X connect 23 0 25 0;
#X connect 24 0 0 0;
#X connect 25 0 24 1;
#X coords 0 -1 1 1 114 198 2 42 9;
#X restore 226 43 pd sqaosc1;
#N canvas 737 533 450 300 clip 0;
#X obj 160 30 vsl 15 75 -0.01 -1 0 0 empty empty empty 0 -9 0 10 -262144
-1 -1 0 1;
#X obj 180 30 vsl 15 75 0.01 1 0 0 empty empty empty 0 -9 0 10 -262144
-1 -1 0 1;
#X obj 200 90 tgl 15 0 empty empty empty 17 7 0 10 -262144 -1 -1 0
1;
#X obj 240 160 spigot;
#X obj 240 190 * -1;
#X obj 140 210 outlet~;
#X obj 110 140 inlet~;
#X obj 110 180 clip~ -0.5 0.5;
#X text 160 10 clip;
#X text 160 110 - / +;
#X text 200 70 s;
#X connect 0 0 3 0;
#X connect 0 0 7 1;
#X connect 1 0 7 2;
#X connect 2 0 3 1;
#X connect 3 0 4 0;
#X connect 4 0 1 0;
#X connect 6 0 7 0;
#X connect 7 0 5 0;
#X coords 0 -1 1 1 70 128 2 155 7;
#X restore 406 293 pd clip;
#N canvas 258 174 494 754 triosc 0;
#X obj 130 640 *~, f 2;
#X obj 150 340 loadbang;
#X obj 130 340 bng 13 250 50 0 empty empty empty 17 7 0 10 -262144
-1 -1;
#X obj 130 360 random 100;
#X floatatom 130 400 5 0 0 0 - - -;
#X obj 130 380 * 0.1;
#X obj 40 360 +;
#X obj 120 670 outlet~;
#X obj 140 200 expr ($f1 - 4) * -1;
#X obj 40 280 pow;
#X msg 160 240 2;
#X obj 20 240 expr $f1 + $f2 - 1;
#X obj 40 310 expr $f1 * 100 - 50;
#X obj 30 460 phasor~;
#X obj 30 500 expr~ $v1 * 2 - 1;
#X obj 50 40 vsl 15 128 0.001 1 0 0 empty empty empty 0 -9 0 10 -262144
-1 -1 0 1;
#X obj 130 70 vsl 15 100 0 1 0 0 empty empty empty 0 -9 0 10 -262144
-1 -1 0 1;
#X obj 70 100 vradio 15 0 1 5 empty empty empty 0 -8 0 10 -262144 -1
-1 2;
#X floatatom 50 180 5 0 0 0 - - -;
#X text 70 40 f;
#X text 130 40 a;
#X text 50 10 TRI;
#X obj 170 460 phasor~;
#X obj 170 500 expr~ $v1 * 2 - 1;
#X obj 90 420 * -1;
#X obj 60 530 clip~ 0 1;
#X obj 170 530 clip~ 0 1;
#X obj 80 560 +~;
#X obj 80 590 expr~ $v1 * 2 - 1;
#X obj 100 90 vsl 15 75 -1 1 0 0 empty empty empty 0 -9 0 10 -262144
-1 -1 0 1;
#X obj 100 60 tgl 15 0 empty empty empty 17 7 0 10 -262144 -1 -1 0
1;
#X obj 270 360 sel 0;
#X msg 271 404 0;
#X text 90 10 phagli;
#X text 100 40 !;
#X obj 310 160 inlet;
#X obj 310 190 random 100;
#X obj 310 220 * 0.01;
#X obj 220 360 spigot;
#X obj 330 380 loadbang;
#X connect 0 0 7 0;
#X connect 1 0 3 0;
#X connect 2 0 3 0;
#X connect 3 0 5 0;
#X connect 4 0 6 1;
#X connect 5 0 4 0;
#X connect 6 0 13 0;
#X connect 6 0 18 0;
#X connect 6 0 24 0;
#X connect 8 0 11 1;
#X connect 9 0 12 0;
#X connect 10 0 9 0;
#X connect 11 0 9 1;
#X connect 12 0 6 0;
#X connect 13 0 14 0;
#X connect 14 0 25 0;
#X connect 15 0 11 0;
#X connect 15 0 10 0;
#X connect 16 0 0 1;
#X connect 17 0 8 0;
#X connect 22 0 23 0;
#X connect 23 0 26 0;
#X connect 24 0 22 0;
#X connect 25 0 27 0;
#X connect 26 0 27 1;
#X connect 27 0 28 0;
#X connect 28 0 0 0;
#X connect 29 0 38 0;
#X connect 30 0 31 0;
#X connect 30 0 38 1;
#X connect 31 0 32 0;
#X connect 32 0 22 1;
#X connect 32 0 13 1;
#X connect 35 0 36 0;
#X connect 36 0 37 0;
#X connect 37 0 38 0;
#X connect 38 0 22 1;
#X connect 39 0 32 0;
#X coords 0 -1 1 1 112 198 2 42 9;
#X restore 357 42 pd triosc;
#N canvas 163 354 787 473 databend 0;
#X obj 370 330 soundfiler;
#X obj 590 60 bng 15 250 50 0 empty empty empty 17 7 0 10 -262144 -1
-1;
#X obj 370 260 openpanel;
#X msg 370 290 read -resize -raw 0 2 2 n \$1 databend;
#N canvas 0 22 450 300 (subpatch) 0;
#X array databend 11025 float 2;
#X coords 0 1 11025 -1 200 140 1;
#X restore 400 80 graph;
#X obj 110 240 tabplay~ databend;
#X obj 470 61 bng 15 250 50 0 empty empty empty 17 7 0 10 -262144 -1
-1;
#X obj 110 280 outlet~;
#X text 493 60 play;
#X text 550 60 open;
#X obj 120 100 inlet;
#X connect 1 0 2 0;
#X connect 2 0 3 0;
#X connect 3 0 0 0;
#X connect 5 0 7 0;
#X connect 6 0 5 0;
#X connect 10 0 5 0;
#X coords 0 -1 1 1 224 177 2 388 51;
#X restore 582 17 pd databend;
#N canvas 665 197 378 329 ampRL 0;
#X obj 130 220 *~;
#X obj 160 220 *~;
#X obj 0 170 inlet~;
#X obj 50 170 inlet~;
#X obj 60 40 vsl 15 75 0.01 1 1 0 empty empty empty 0 -9 0 10 -262144
-1 -1 0 1;
#X text 50 20 amp LR;
#X obj 110 290 outlet~;
#X obj 170 290 outlet~;
#X obj 80 80 tgl 15 0 empty empty empty 17 7 0 10 -262144 -1 -1 0 1
;
#X obj 180 104 sel 0;
#X msg 180 130 1;
#X obj 140 160 *;
#X text 80 60 !;
#X msg 210 130 10;
#X connect 0 0 6 0;
#X connect 1 0 7 0;
#X connect 2 0 0 0;
#X connect 3 0 1 0;
#X connect 4 0 11 0;
#X connect 8 0 9 0;
#X connect 9 0 10 0;
#X connect 9 1 13 0;
#X connect 10 0 11 1;
#X connect 11 0 0 1;
#X connect 11 0 1 1;
#X connect 13 0 11 1;
#X coords 0 -1 1 1 53 114 2 46 17;
#X restore 412 432 pd ampRL;
#N canvas 329 323 702 431 chorus 0;
#X obj 20 0 inlet~;
#X obj 40 340 outlet~;
#X obj 20 60 delwrite~ \$0-buffer 100;
#X obj 30 230 delread4~ \$0-buffer;
#X obj 30 200 *~;
#X obj 350 110 hsl 128 15 0.2 20 1 0 empty empty empty -2 -8 0 10 -262144
-1 -1 0 1;
#X obj 30 130 osc~;
#X obj 350 70 hsl 128 15 0.01 20 1 0 empty empty empty -2 -8 0 10 -262144
-1 -1 0 1;
#X obj 110 30 outlet~;
#X text 390 20 chorus;
#X text 350 50 rate;
#X text 350 90 depth;
#X obj 350 150 hsl 128 15 0 1 0 0 empty empty empty -2 -8 0 10 -262144
-1 -1 0 1;
#X obj 60 300 *~;
#X text 350 170 wet;
#X text 460 170 dry;
#X obj 30 160 expr~ ($v1 + 1) / 2 + 1;
#X text 350 130 mix;
#X obj 90 300 *~;
#X obj 140 270 expr ($f1 - 1) * -1;
#X obj 280 70 s rate;
#X obj 280 100 s depth;
#X obj 30 100 r rate;
#X obj 80 190 r depth;
#X obj 342 372 delread4~ \$0-buffer;
#X obj 342 342 *~;
#X obj 342 272 osc~;
#X obj 342 302 expr~ ($v1 + 1) / 2 + 1;
#X obj 342 242 r rate;
#X obj 392 332 r depth;
#X floatatom 100 120 5 0 0 0 - - -;
#X floatatom 410 270 5 0 0 0 - - -;
#X connect 0 0 2 0;
#X connect 0 0 8 0;
#X connect 0 0 18 0;
#X connect 3 0 13 0;
#X connect 4 0 3 0;
#X connect 5 0 21 0;
#X connect 6 0 16 0;
#X connect 7 0 20 0;
#X connect 12 0 13 1;
#X connect 12 0 19 0;
#X connect 13 0 1 0;
#X connect 16 0 4 0;
#X connect 18 0 1 0;
#X connect 19 0 18 1;
#X connect 22 0 6 0;
#X connect 23 0 4 1;
#X connect 25 0 24 0;
#X connect 26 0 27 0;
#X connect 27 0 25 0;
#X connect 28 0 26 0;
#X connect 29 0 25 1;
#X connect 30 0 6 1;
#X connect 31 0 26 1;
#X coords 0 -1 1 1 143 173 2 345 20;
#X restore 889 220 pd chorus;
#N canvas 1187 307 450 300 LFO 0;
#X obj 30 130 outlet~;
#X obj 30 90 *~;
#X obj 30 20 osc~;
#X obj 30 50 expr~ ($v1 + 1) / 2 + 1;
#X obj 240 40 hsl 75 15 0.1 20 1 0 empty empty empty -2 -8 0 10 -262144
-1 -1 0 1;
#X obj 240 80 hsl 75 15 0.1 50 1 0 empty empty empty -2 -8 0 10 -262144
-1 -1 0 1;
#X text 240 20 f;
#X text 240 60 a;
#X text 290 20 LFO;
#X connect 1 0 0 0;
#X connect 2 0 3 0;
#X connect 3 0 1 0;
#X connect 4 0 2 0;
#X connect 5 0 1 1;
#X coords 0 -1 1 1 87 82 2 237 17;
#X restore 923 35 pd LFO;
#N canvas 1168 490 450 300 chorus_modulo 0;
#X obj 22 12 inlet~;
#X obj 90 40 outlet~;
#X obj 30 250 outlet~;
#X obj 32 182 *~;
#X obj 90 110 inlet~;
#X obj 260 120 hsl 75 15 0 1 0 0 empty empty empty -2 -8 0 10 -262144
-1 -1 0 1;
#X text 260 100 mix;
#X obj 22 72 delwrite~ \$0-buffer2 100;
#X obj 22 142 delread4~ \$0-buffer2;
#X obj 140 190 *~;
#X obj 210 160 expr ($f1 - 1) * -1;
#X text 270 80 cho/vib;
#X connect 0 0 7 0;
#X connect 0 0 9 0;
#X connect 0 0 1 0;
#X connect 3 0 2 0;
#X connect 4 0 8 0;
#X connect 5 0 3 1;
#X connect 5 0 10 0;
#X connect 8 0 3 0;
#X connect 9 0 2 0;
#X connect 10 0 9 1;
#X coords 0 -1 1 1 90 66 2 257 75;
#X restore 128 293 pd chorus_modulo;
#X text 20 10 OSCILADORES;
#X text 20 260 FILTRO;
#X text 130 260 MODULAÇÃO;
#X text 391 270 AMPLIFICAÇÃO;
#N canvas 585 293 450 300 metro 0;
#X obj 80 180 metro;
#X floatatom 110 70 5 0.001 1000 0 - - -;
#X obj 100 130 expr 60000 / $f1;
#X obj 90 70 tgl 15 0 empty empty empty 17 7 0 10 -262144 -1 -1 0 1
;
#X obj 80 210 outlet;
#X text 90 50 metro;
#X connect 0 0 4 0;
#X connect 1 0 2 0;
#X connect 2 0 0 1;
#X connect 3 0 0 0;
#X coords 0 -1 1 1 74 51 2 81 43;
#X restore 930 130 pd metro;
#N canvas 555 25 710 343 qwerty_midi 0;
#X obj 100 9 key;
#X obj 92 81 bng 15 250 50 0 empty empty empty 17 7 0 10 -262144 -1
-1;
#X obj 129 68 bng 15 250 50 0 empty empty empty 17 7 0 10 -262144 -1
-1;
#X obj 154 89 bng 15 250 50 0 empty empty empty 17 7 0 10 -262144 -1
-1;
#X obj 187 70 bng 15 250 50 0 empty empty empty 17 7 0 10 -262144 -1
-1;
#X obj 211 94 bng 15 250 50 0 empty empty empty 17 7 0 10 -262144 -1
-1;
#X obj 245 92 bng 15 250 50 0 empty empty empty 17 7 0 10 -262144 -1
-1;
#X obj 280 70 bng 15 250 50 0 empty empty empty 17 7 0 10 -262144 -1
-1;
#X obj 310 94 bng 15 250 50 0 empty empty empty 17 7 0 10 -262144 -1
-1;
#X obj 340 72 bng 15 250 50 0 empty empty empty 17 7 0 10 -262144 -1
-1;
#X obj 371 96 bng 15 250 50 0 empty empty empty 17 7 0 10 -262144 -1
-1;
#X obj 402 71 bng 15 250 50 0 empty empty empty 17 7 0 10 -262144 -1
-1;
#X obj 435 94 bng 15 250 50 0 empty empty empty 17 7 0 10 -262144 -1
-1;
#X obj 467 94 bng 15 250 50 0 empty empty empty 17 7 0 10 -262144 -1
-1;
#X obj 491 74 bng 15 250 50 0 empty empty empty 17 7 0 10 -262144 -1
-1;
#X obj 525 95 bng 15 250 50 0 empty empty empty 17 7 0 10 -262144 -1
-1;
#X obj 551 73 bng 15 250 50 0 empty empty empty 17 7 0 10 -262144 -1
-1;
#X obj 587 84 bng 15 250 50 0 empty empty empty 17 7 0 10 -262144 -1
-1;
#X obj 616 90 bng 15 250 50 0 empty empty empty 17 7 0 10 -262144 -1
-1;
#X msg 49 113 0;
#X msg 85 113 1;
#X msg 124 114 2;
#X msg 160 115 3;
#X msg 198 117 4;
#X msg 238 117 5;
#X msg 276 116 6;
#X msg 313 117 7;
#X msg 350 117 8;
#X msg 386 116 9;
#X msg 424 116 10;
#X msg 460 117 11;
#X msg 494 117 12;
#X msg 532 118 13;
#X msg 566 118 14;
#X msg 603 117 15;
#X msg 640 118 16;
#X msg 679 120 17;
#X floatatom 523 220 5 0 0 0 - - -;
#X obj 540 178 +;
#X obj 243 288 * 12;
#X obj 101 38 sel 97 119 115 101 100 102 116 103 121 104 117 106 107
111 108 112 59 39, f 78;
#X obj 519 270 outlet;
#X obj 43 265 hradio 15 0 0 10 empty empty empty 0 -8 0 10 -262144
-1 -1 9;
#X msg 15 196 0;
#X msg 51 196 1;
#X msg 90 197 2;
#X msg 126 198 3;
#X msg 164 200 4;
#X msg 204 200 5;
#X msg 242 199 6;
#X msg 279 200 7;
#X floatatom 23 36 5 0 0 0 - - -;
#X obj 21 156 sel 49 50 51 52 53 54 55 56 57 48, f 35;
#X msg 314 201 8;
#X msg 350 200 9;
#X text 117 284 60;
#X connect 0 0 40 0;
#X connect 0 0 51 0;
#X connect 0 0 52 0;
#X connect 1 0 19 0;
#X connect 2 0 20 0;
#X connect 3 0 21 0;
#X connect 4 0 22 0;
#X connect 5 0 23 0;
#X connect 6 0 24 0;
#X connect 7 0 25 0;
#X connect 8 0 26 0;
#X connect 9 0 27 0;
#X connect 10 0 28 0;
#X connect 11 0 29 0;
#X connect 12 0 30 0;
#X connect 13 0 31 0;
#X connect 14 0 32 0;
#X connect 15 0 33 0;
#X connect 16 0 34 0;
#X connect 17 0 35 0;
#X connect 18 0 36 0;
#X connect 19 0 38 0;
#X connect 20 0 38 0;
#X connect 21 0 38 0;
#X connect 22 0 38 0;
#X connect 23 0 38 0;
#X connect 24 0 38 0;
#X connect 25 0 38 0;
#X connect 26 0 38 0;
#X connect 27 0 38 0;
#X connect 28 0 38 0;
#X connect 29 0 38 0;
#X connect 30 0 38 0;
#X connect 31 0 38 0;
#X connect 32 0 38 0;
#X connect 33 0 38 0;
#X connect 34 0 38 0;
#X connect 35 0 38 0;
#X connect 36 0 38 0;
#X connect 37 0 41 0;
#X connect 38 0 37 0;
#X connect 39 0 38 1;
#X connect 40 0 1 0;
#X connect 40 1 2 0;
#X connect 40 2 3 0;
#X connect 40 3 4 0;
#X connect 40 4 5 0;
#X connect 40 5 6 0;
#X connect 40 6 7 0;
#X connect 40 7 8 0;
#X connect 40 8 9 0;
#X connect 40 9 10 0;
#X connect 40 10 11 0;
#X connect 40 11 12 0;
#X connect 40 12 13 0;
#X connect 40 13 14 0;
#X connect 40 14 15 0;
#X connect 40 15 16 0;
#X connect 40 16 17 0;
#X connect 40 17 18 0;
#X connect 42 0 39 0;
#X connect 43 0 42 0;
#X connect 44 0 42 0;
#X connect 45 0 42 0;
#X connect 46 0 42 0;
#X connect 47 0 42 0;
#X connect 48 0 42 0;
#X connect 49 0 42 0;
#X connect 50 0 42 0;
#X connect 52 0 43 0;
#X connect 52 1 44 0;
#X connect 52 2 45 0;
#X connect 52 3 46 0;
#X connect 52 4 47 0;
#X connect 52 5 48 0;
#X connect 52 6 49 0;
#X connect 52 7 50 0;
#X connect 52 8 53 0;
#X connect 52 9 54 0;
#X connect 53 0 42 0;
#X connect 54 0 42 0;
#X coords 0 -1 1 1 158 68 1 39 235;
#X restore 28 524 pd qwerty_midi;
#N canvas 671 200 450 300 noise 0;
#X obj 86 213 outlet~;
#X obj 92 47 vsl 15 75 0 0.5 0 0 empty empty noise 0 -9 0 10 -262144
-1 -262144 0 1;
#X obj 60 170 *~;
#X obj 30 120 noise~;
#X text 86 28 noise;
#X connect 1 0 2 1;
#X connect 2 0 0 0;
#X connect 3 0 2 0;
#X coords 0 -1 1 1 40 101 2 86 27;
#X restore 498 43 pd noise;
#X text 26 496 CONTROLE;
#N canvas 858 57 461 548 CTRL 0;
#X obj 155 122 vsl 15 75 0 10 0 1 empty empty empty 0 -9 0 10 -262144
-1 -1 6900 1;
#X obj 104 122 vsl 15 75 1 10 0 1 empty empty empty 0 -9 0 10 -262144
-1 -1 1100 1;
#X obj 121 122 vsl 15 75 0 10 0 1 empty empty empty 0 -9 0 10 -262144
-1 -1 7400 1;
#X obj 138 122 vsl 15 75 0 10 0 1 empty empty empty 0 -9 0 10 -262144
-1 -1 7400 1;
#X msg 101 424 1 \$2 \, \$4 \$3 \$2;
#X obj 86 353 pack f f f f;
#X msg 221 457 0 \$2;
#X obj 282 396 sel 0;
#X obj 229 424 pack f f;
#X obj 181 324 / 10;
#X obj 92 328 pow 4;
#X obj 221 323 pow 4;
#X obj 135 326 pow 2;
#X floatatom 282 371 5 0 0 0 - - -;
#X obj 9 375 outlet;
#X obj 16 302 stripnote;
#X obj 31 258 notein;
#X obj 143 477 vline~;
#X obj 133 509 outlet~;
#X connect 0 0 11 0;
#X connect 1 0 10 0;
#X connect 2 0 12 0;
#X connect 3 0 9 0;
#X connect 4 0 17 0;
#X connect 5 0 4 0;
#X connect 6 0 17 0;
#X connect 7 0 8 0;
#X connect 8 0 6 0;
#X connect 9 0 5 3;
#X connect 10 0 5 1;
#X connect 11 0 8 1;
#X connect 12 0 5 2;
#X connect 13 0 7 0;
#X connect 15 0 5 0;
#X connect 15 0 14 0;
#X connect 16 0 15 0;
#X connect 16 1 13 0;
#X connect 16 1 15 1;
#X connect 17 0 18 0;
#X coords 0 -1 1 1 74 105 1 100 100;
#X restore 528 223 pd CTRL;
#N canvas 921 812 450 642 sin_midi 0;
#X obj 178 321 loadbang;
#X obj 152 331 bng 13 250 50 0 empty empty empty 17 7 0 10 -262144
-1 -1;
#X obj 152 351 random 100;
#X obj 32 365 +;
#X text 102 140 a;
#X text 104 100 SIN;
#X obj 33 209 inlet;
#X floatatom 206 138 6 0 0 0 - - -;
#X obj 223 283 metro 100;
#X obj 226 260 tgl 15 0 empty empty empty 17 7 0 10 -262144 -1 -1 1
1;
#X obj 151 380 expr $f1 * 0.01 - 0.5;
#X floatatom 31 530 5 0 0 0 - - -;
#X obj 32 343 +;
#X obj 123 120 hsl 128 15 -0.5 0.5 0 0 empty empty empty -2 -8 0 10
-262144 -1 -1 0 1;
#X obj 124 141 hsl 75 15 0 1 0 0 empty empty empty -2 -8 0 10 -262144
-1 -1 0 1;
#X text 101 120 f;
#X obj 153 583 outlet~;
#X obj 176 519 *~;
#X obj 173 547 *~;
#X obj 230 405 inlet;
#X msg 240 441 next \$1;
#X obj 23 262 unpack f f;
#X floatatom 110 305 5 0 0 0 - - -;
#X obj 114 479 clone osc_sin_midi 12;
#X msg 107 448 next \$1;
#X obj 37 37;
#X obj 37 37;
#X obj 310 317 clone osc_sin~;
#X connect 0 0 2 0;
#X connect 0 0 9 0;
#X connect 1 0 2 0;
#X connect 2 0 10 0;
#X connect 3 0 11 0;
#X connect 3 0 24 0;
#X connect 6 0 21 0;
#X connect 8 0 12 0;
#X connect 9 0 8 0;
#X connect 10 0 3 1;
#X connect 12 0 3 0;
#X connect 13 0 12 1;
#X connect 14 0 18 1;
#X connect 17 0 18 0;
#X connect 18 0 16 0;
#X connect 21 0 12 0;
#X connect 23 0 17 0;
#X connect 24 0 23 0;
#X coords 0 -1 1 1 161 60 2 100 100;
#X restore 120 399 pd sin_midi;
#N canvas 922 51 450 376 ENV 0;
#X obj 158 118 vsl 15 75 5 5000 1 1 empty empty R 0 -9 0 10 -262144
-1 -1 4800 1;
#X obj 107 118 vsl 15 75 1 1000 1 1 empty empty A 0 -9 0 10 -262144
-1 -1 2000 1;
#X obj 124 118 vsl 15 75 5 10000 1 1 empty empty D 0 -9 0 10 -262144
-1 -1 6500 1;
#X msg 107 281 all A \$1;
#X msg 124 261 all D \$1;
#X msg 158 221 all R \$1;
#X obj 124 315 outlet;
#X obj 141 118 vsl 15 75 0 1 0 1 empty empty S 0 -9 0 10 -262144 -1
-1 0 1;
#X msg 142 241 all S \$1;
#X connect 0 0 5 0;
#X connect 1 0 3 0;
#X connect 2 0 4 0;
#X connect 3 0 6 0;
#X connect 4 0 6 0;
#X connect 5 0 6 0;
#X connect 7 0 8 0;
#X connect 8 0 6 0;
#X coords 0 -1 1 1 77 100 2 100 100;
#X restore 614 300 pd ENV;
#N canvas 707 191 630 348 sin_poly 0;
#X obj 287 169 pack f f f;
#X obj 287 232 *~;
#X obj 403 160 inlet;
#X obj 287 261 outlet~;
#X text 106 148 a;
#X floatatom 210 146 6 0 0 0 - - -;
#X obj 127 128 hsl 128 15 -0.5 0.5 0 0 empty empty empty -2 -8 0 10
-262144 -1 -1 6300 1;
#X obj 128 149 hsl 75 15 0 1 0 0 empty empty empty -2 -8 0 10 -262144
-1 -1 6600 1;
#X text 105 128 f;
#X obj 278 30 notein;
#X obj 272 55 pack f f, f 9;
#X obj 312 144 +;
#X obj 296 -7 loadbang;
#X obj 396 49 bng 13 250 50 0 empty empty empty 17 7 0 10 -262144 -1
-1;
#X obj 396 69 random 100;
#X obj 396 89 * 0.1;
#X obj 274 111 - 1;
#X obj 274 84 poly 24 1;
#X obj 287 193 clone osc_sin~ 24;
#X text 109 104 SIN poly;
#X obj 234 80 bng 15 250 50 0 empty empty empty 17 7 0 10 -262144 -1
-1;
#X obj 179 54 metro 100;
#X obj 180 30 tgl 15 0 empty empty empty 17 7 0 10 -262144 -1 -1 1
1;
#X msg 103 69 0;
#X obj 96 46 bng 15 250 50 0 empty empty empty 17 7 0 10 -262144 -1
-1;
#X connect 0 0 18 0;
#X connect 1 0 3 0;
#X connect 2 0 18 1;
#X connect 6 0 11 1;
#X connect 7 0 1 1;
#X connect 9 0 10 0;
#X connect 9 1 10 1;
#X connect 10 0 17 0;
#X connect 11 0 0 1;
#X connect 11 0 5 0;
#X connect 12 0 14 0;
#X connect 12 0 22 0;
#X connect 12 0 23 0;
#X connect 13 0 14 0;
#X connect 14 0 15 0;
#X connect 15 0 11 0;
#X connect 16 0 0 0;
#X connect 17 0 16 0;
#X connect 17 1 11 0;
#X connect 17 2 0 2;
#X connect 18 0 1 0;
#X connect 20 0 11 0;
#X connect 21 0 20 0;
#X connect 22 0 21 0;
#X connect 23 0 6 0;
#X connect 24 0 23 0;
#X coords 0 -1 1 1 162 70 2 100 100;
#X restore 557 425 pd sin_poly;
#N canvas 707 191 630 348 sin_poly 0;
#X obj 287 169 pack f f f;
#X obj 287 232 *~;
#X obj 403 160 inlet;
#X obj 287 261 outlet~;
#X text 106 148 a;
#X floatatom 210 146 6 0 0 0 - - -;
#X obj 127 128 hsl 128 15 -0.5 0.5 0 0 empty empty empty -2 -8 0 10
-262144 -1 -1 6600 1;
#X obj 128 149 hsl 75 15 0 1 0 0 empty empty empty -2 -8 0 10 -262144
-1 -1 6600 1;
#X text 105 128 f;
#X obj 278 30 notein;
#X obj 272 55 pack f f, f 9;
#X obj 312 144 +;
#X obj 296 -7 loadbang;
#X obj 396 49 bng 13 250 50 0 empty empty empty 17 7 0 10 -262144 -1
-1;
#X obj 396 69 random 100;
#X obj 396 89 * 0.1;
#X obj 274 111 - 1;
#X obj 274 84 poly 24 1;
#X obj 287 193 clone osc_sin~ 24;
#X text 109 104 SIN poly;
#X obj 234 80 bng 15 250 50 0 empty empty empty 17 7 0 10 -262144 -1
-1;
#X obj 179 54 metro 100;
#X obj 180 30 tgl 15 0 empty empty empty 17 7 0 10 -262144 -1 -1 1
1;
#X msg 103 69 0;
#X obj 96 46 bng 15 250 50 0 empty empty empty 17 7 0 10 -262144 -1
-1;
#X connect 0 0 18 0;
#X connect 1 0 3 0;
#X connect 2 0 18 1;
#X connect 6 0 11 1;
#X connect 7 0 1 1;
#X connect 9 0 10 0;
#X connect 9 1 10 1;
#X connect 10 0 17 0;
#X connect 11 0 0 1;
#X connect 11 0 5 0;
#X connect 12 0 14 0;
#X connect 12 0 22 0;
#X connect 12 0 23 0;
#X connect 13 0 14 0;
#X connect 14 0 15 0;
#X connect 15 0 11 0;
#X connect 16 0 0 0;
#X connect 17 0 16 0;
#X connect 17 1 11 0;
#X connect 17 2 0 2;
#X connect 18 0 1 0;
#X connect 20 0 11 0;
#X connect 21 0 20 0;
#X connect 22 0 21 0;
#X connect 23 0 6 0;
#X connect 24 0 23 0;
#X coords 0 -1 1 1 162 70 2 100 100;
#X restore 722 425 pd sin_poly;
#X connect 22 0 23 0;
#X connect 22 0 24 0;
#X connect 23 0 0 0;
#X connect 24 0 0 1;
