#N canvas 345 317 556 326 12;
#X obj 38 17 inlet;
#X obj 37 85 mtof;
#X obj 37 109 osc~;
#X obj 37 227 *~, f 19;
#X obj 37 251 outlet~;
#X obj 318 37 inlet;
#X obj 154 76 sel 0;
#X msg 186 99 1;
#X obj 387 135 pack 0 70;
#X msg 154 99 0;
#X obj 247 184 vline~;
#X msg 387 159 0 \$2;
#X obj 37 168 *~;
#X obj 103 130 / 127;
#X obj 38 41 unpack;
#X obj 318 61 route A D S R, f 19;
#X obj 247 136 pack 0 10 10 1;
#X msg 247 160 1 \$2 \, \$4 \$3 \$2;
#X connect 0 0 14 0;
#X connect 1 0 2 0;
#X connect 2 0 12 0;
#X connect 3 0 4 0;
#X connect 5 0 15 0;
#X connect 6 0 9 0;
#X connect 6 1 7 0;
#X connect 6 1 13 0;
#X connect 7 0 16 0;
#X connect 8 0 11 0;
#X connect 9 0 8 0;
#X connect 10 0 3 1;
#X connect 11 0 10 0;
#X connect 12 0 3 0;
#X connect 13 0 12 1;
#X connect 14 0 1 0;
#X connect 14 1 6 0;
#X connect 15 0 16 1;
#X connect 15 1 16 2;
#X connect 15 2 16 3;
#X connect 15 3 8 1;
#X connect 16 0 17 0;
#X connect 17 0 10 0;
